HIERARCHY
ROOT Hips
{
	OFFSET -0.001795 -0.223333 0.028219
	CHANNELS 6 Xposition Yposition Zposition Zrotation Yrotation Xrotation 
	JOINT LeftUpLeg
	{
		OFFSET 0.069520 -0.091406 -0.006815
		CHANNELS 3 Zrotation Yrotation Xrotation
		JOINT LeftLeg
		{
			OFFSET 0.034277 -0.375199 -0.004496
			CHANNELS 3 Zrotation Yrotation Xrotation
			JOINT LeftFoot
			{
				OFFSET -0.013596 -0.397961 -0.043693
				CHANNELS 3 Zrotation Yrotation Xrotation
				JOINT LeftToe
				{
					OFFSET 0.026358 -0.055791 0.119288
					CHANNELS 3 Zrotation Yrotation Xrotation
					End Site
					{
						OFFSET 0.000000 0.000000 0.000000
					}
				}
			}
		}
	}
	JOINT RightUpLeg
	{
		OFFSET -0.067670 -0.090522 -0.004320
		CHANNELS 3 Zrotation Yrotation Xrotation
		JOINT RightLeg
		{
			OFFSET -0.038290 -0.382569 -0.008850
			CHANNELS 3 Zrotation Yrotation Xrotation
			JOINT RightFoot
			{
				OFFSET 0.015774 -0.398415 -0.042312
				CHANNELS 3 Zrotation Yrotation Xrotation
				JOINT RightToe
				{
					OFFSET -0.025372 -0.048144 0.123348
					CHANNELS 3 Zrotation Yrotation Xrotation
					End Site
					{
						OFFSET 0.000000 0.000000 0.000000
					}
				}
			}
		}
	}
	JOINT Spine
	{
		OFFSET -0.002533 0.108963 -0.026696
		CHANNELS 3 Zrotation Yrotation Xrotation
		JOINT Spine1
		{
			OFFSET 0.005487 0.135180 0.001092
			CHANNELS 3 Zrotation Yrotation Xrotation
			JOINT Spine2
			{
				OFFSET 0.001457 0.052922 0.025425
				CHANNELS 3 Zrotation Yrotation Xrotation
				JOINT Neck
				{
					OFFSET -0.002778 0.213870 -0.042857
					CHANNELS 3 Zrotation Yrotation Xrotation
					JOINT Head
					{
						OFFSET 0.005152 0.064970 0.051349
						CHANNELS 3 Zrotation Yrotation Xrotation
						End Site
						{
							OFFSET 0.000000 0.000000 0.000000
						}
					}
				}
				JOINT LeftShoulder
				{
					OFFSET 0.078845 0.121749 -0.034090
					CHANNELS 3 Zrotation Yrotation Xrotation
					JOINT LeftArm
					{
						OFFSET 0.090977 0.030469 -0.008868
						CHANNELS 3 Zrotation Yrotation Xrotation
						JOINT LeftForeArm
						{
							OFFSET 0.259612 -0.012772 -0.027456
							CHANNELS 3 Zrotation Yrotation Xrotation
							JOINT LeftHand
							{
								OFFSET 0.249234 0.008986 -0.001171
								CHANNELS 3 Zrotation Yrotation Xrotation
								End Site
								{
									OFFSET 0.000000 0.000000 0.000000
								}
							}
						}
					}
				}
				JOINT RightShoulder
				{
					OFFSET -0.081759 0.118833 -0.038615
					CHANNELS 3 Zrotation Yrotation Xrotation
					JOINT RightArm
					{
						OFFSET -0.096012 0.032551 -0.009143
						CHANNELS 3 Zrotation Yrotation Xrotation
						JOINT RightForeArm
						{
							OFFSET -0.253742 -0.013329 -0.021401
							CHANNELS 3 Zrotation Yrotation Xrotation
							JOINT RightHand
							{
								OFFSET -0.255298 0.007772 -0.005559
								CHANNELS 3 Zrotation Yrotation Xrotation
								End Site
								{
									OFFSET 0.000000 0.000000 0.000000
								}
							}
						}
					}
				}
			}
		}
	}
}
MOTION
Frames: 10
Frame Time: 0.050000
-0.018943 0.958057 -0.039111 0.066339 -7.473571 4.828996 3.412630 -0.319538 -4.572192 1.038794 -0.121934 -0.072755 1.121624 5.359027 11.191485 0.000000 0.000000 0.000000 -1.852704 0.752690 -7.908184 -4.266944 0.456114 0.755373 2.649743 -1.641245 13.294363 0.000000 0.000000 0.000000 5.105117 -0.003278 -1.260172 0.960120 -0.447344 0.670536 -12.784356 6.207830 6.405290 15.117617 -15.039388 6.347781 0.000000 0.000000 0.000000 6.377387 -10.400044 3.633330 -33.365312 -29.063210 3.103429 -47.269963 -62.125021 30.761597 0.000000 0.000000 0.000000 -2.221126 -5.650627 -1.813716 49.179007 13.102223 0.725213 83.754810 64.167834 64.184537 0.000000 0.000000 0.000000 
-0.019335 0.958408 -0.038579 0.186179 -7.336971 4.292709 3.681267 -0.292218 -4.328848 0.779282 -0.107708 0.379529 1.184743 5.494715 11.228144 0.000000 0.000000 0.000000 -2.480987 0.724501 -7.745606 -3.824786 0.449566 1.234264 2.879123 -1.084644 13.099191 0.000000 0.000000 0.000000 4.909051 -0.022907 -0.917588 0.733228 -0.343257 0.841745 -12.728489 6.468195 6.170861 14.633547 -14.924511 7.220197 0.000000 0.000000 0.000000 10.085785 -9.481518 3.557888 -30.791440 -29.269898 2.711290 -65.295032 -67.737665 47.617459 0.000000 0.000000 0.000000 -5.189685 -6.211142 -1.759291 47.523916 12.916558 0.712514 98.330497 66.114266 80.473881 0.000000 0.000000 0.000000 
-0.019862 0.959934 -0.037477 0.209447 -6.617666 4.020654 3.948910 -0.286810 -4.339426 0.713097 -0.109230 0.661069 0.712606 4.897807 11.680135 0.000000 0.000000 0.000000 -2.376642 0.708870 -7.590760 -4.000640 0.502271 1.599304 2.656806 -1.725468 13.814025 0.000000 0.000000 0.000000 4.431090 -0.031205 -0.729082 0.660241 -0.301558 -0.155451 -12.261602 5.939137 7.022839 13.618425 -14.929393 9.869982 0.000000 0.000000 0.000000 14.898690 -6.090715 3.018473 -24.810661 -29.065246 1.720378 -110.496647 -72.772812 94.996505 0.000000 0.000000 0.000000 -9.456023 -7.293911 -1.650768 42.156033 13.005767 0.494930 121.383241 66.016218 105.905148 0.000000 0.000000 0.000000 
-0.020576 0.962232 -0.035857 -0.080933 -5.902103 4.083130 4.269708 -0.293729 -4.547853 0.491452 -0.081155 0.662042 0.240565 4.154670 11.526827 0.000000 0.000000 0.000000 -2.250116 0.685797 -7.314324 -3.463475 0.409845 1.109443 2.520505 -1.627344 13.320848 0.000000 0.000000 0.000000 4.339878 -0.000691 -1.115680 0.882427 -0.400474 -0.541830 -12.040535 6.234785 7.615456 12.856860 -15.273336 12.505778 0.000000 0.000000 0.000000 20.085657 -2.970091 2.937841 -18.371635 -28.290484 0.625986 -159.131854 -67.296405 150.803345 0.000000 0.000000 0.000000 -14.864106 -10.168219 -1.832020 37.650543 12.703035 0.344206 145.800292 64.584415 137.841978 0.000000 0.000000 0.000000 
-0.021474 0.964319 -0.033641 -0.215925 -5.470979 4.378921 4.469067 -0.291800 -4.487713 0.915674 -0.099122 -0.203967 -0.215383 3.712209 12.493176 0.000000 0.000000 0.000000 -2.011677 0.685328 -7.256887 -3.479580 0.420636 1.209081 2.258374 -2.229185 13.725648 0.000000 0.000000 0.000000 4.496723 -0.010934 -1.080703 0.310984 -0.116023 -1.855247 -11.231893 6.160029 8.695827 13.033705 -16.263729 14.368204 0.000000 0.000000 0.000000 23.814513 2.159753 2.558603 -14.212449 -28.124147 0.006123 177.909843 -58.450048 -173.401896 0.000000 0.000000 0.000000 -20.193210 -14.384504 -1.883309 34.247187 12.508625 0.205337 166.998924 60.464819 169.459554 0.000000 0.000000 0.000000 
-0.022251 0.965694 -0.031419 -0.337573 -4.737129 4.477784 4.447776 -0.302307 -4.531665 0.973177 -0.087977 -0.606927 -0.832092 2.898135 12.852056 0.000000 0.000000 0.000000 -2.062857 0.626826 -6.597837 -3.161167 0.354692 0.711464 1.767258 -3.055137 13.816206 0.000000 0.000000 0.000000 4.127221 0.028299 -1.558554 0.470064 -0.187703 -1.675187 -10.621694 5.734118 8.983024 11.688922 -15.499858 16.301881 0.000000 0.000000 0.000000 26.373451 7.061027 2.338897 -12.079079 -28.874518 -0.257016 166.925376 -50.624564 -148.834868 0.000000 0.000000 0.000000 -24.607663 -18.421261 -1.634241 31.955447 11.570977 -0.038751 -176.085803 56.253808 -159.724541 0.000000 0.000000 0.000000 
-0.022764 0.967055 -0.029151 -0.484069 -4.028871 4.667890 4.526955 -0.303116 -4.422753 1.319027 -0.096369 -1.230358 -1.097271 2.597599 12.985905 0.000000 0.000000 0.000000 -2.075280 0.630559 -6.651782 -2.814788 0.354454 1.203540 1.370901 -3.511977 13.420632 0.000000 0.000000 0.000000 4.191987 0.026305 -1.592023 0.365252 -0.116745 -2.744165 -10.027193 5.229708 10.000763 11.529435 -15.565667 16.944148 0.000000 0.000000 0.000000 27.289097 11.058845 1.951826 -10.685702 -28.975870 -0.455424 159.396013 -42.995539 -125.454371 0.000000 0.000000 0.000000 -27.240818 -21.322024 -1.374754 30.563780 10.696585 -0.302373 -164.867898 52.867705 -136.713047 0.000000 0.000000 0.000000 
-0.022983 0.967582 -0.027261 -0.458697 -3.430061 4.529594 4.439577 -0.288099 -4.019852 1.796436 -0.119480 -1.719905 -1.748930 1.700311 13.247137 0.000000 0.000000 0.000000 -2.243676 0.587608 -6.190967 -2.681965 0.324364 0.924466 1.159965 -3.688796 13.112081 0.000000 0.000000 0.000000 4.071351 0.040677 -1.748539 0.073957 0.014715 -2.649458 -9.631788 5.183820 10.219250 10.180536 -14.195742 17.360438 0.000000 0.000000 0.000000 28.122914 13.762664 1.906672 -10.474241 -29.685268 -0.491691 153.823500 -37.171570 -105.856472 0.000000 0.000000 0.000000 -28.954979 -23.647506 -1.243937 30.779844 9.480896 -0.525063 -158.995243 50.016854 -122.710023 0.000000 0.000000 0.000000 
-0.023015 0.968614 -0.025953 -0.416254 -3.345587 4.763935 4.478712 -0.291991 -4.045335 1.805605 -0.103183 -2.055910 -1.861859 1.645034 13.599703 0.000000 0.000000 0.000000 -2.345489 0.595212 -6.285545 -2.767087 0.333798 0.927280 1.125521 -3.722848 13.069043 0.000000 0.000000 0.000000 4.125102 0.049360 -1.907604 0.016443 0.043469 -2.789680 -9.682352 5.259000 10.127697 9.690372 -13.683785 17.485116 0.000000 0.000000 0.000000 28.319597 15.511220 1.829545 -9.659629 -29.775452 -0.613919 149.465846 -34.139386 -92.581326 0.000000 0.000000 0.000000 -29.202895 -25.377790 -1.351015 30.065108 9.552015 -0.505040 -153.797917 49.318296 -112.384414 0.000000 0.000000 0.000000 
-0.023076 0.969389 -0.025531 -0.443062 -3.108413 4.976875 4.316568 -0.298474 -4.027837 2.483715 -0.147922 -2.375863 -2.533949 0.720079 13.975888 0.000000 0.000000 0.000000 -2.449004 0.591713 -6.250099 -2.715768 0.330601 0.953305 0.995838 -3.996574 13.250599 0.000000 0.000000 0.000000 4.295989 0.065978 -2.171551 0.072098 0.021292 -2.824592 -9.691552 5.469485 10.328722 9.209933 -13.106659 17.252472 0.000000 0.000000 0.000000 27.997836 16.791758 1.697794 -8.804066 -30.623689 -0.771252 146.995003 -32.296245 -85.200844 0.000000 0.000000 0.000000 -29.513885 -26.296469 -1.447581 29.455332 9.174534 -0.582942 -151.753031 47.718829 -106.420865 0.000000 0.000000 0.000000 
